<?xml version="1.0" standalone="no"?>
<!DOCTYPE svg PUBLIC "-//W3C//DTD SVG 20010904//EN"
 "http://www.w3.org/TR/2001/REC-SVG-20010904/DTD/svg10.dtd">
<svg version="1.0" xmlns="http://www.w3.org/2000/svg"
 width="640.000000pt" height="640.000000pt" viewBox="0 0 640.000000 640.000000"
 preserveAspectRatio="xMidYMid meet">
<metadata>
Created by potrace 1.11, written by Peter Selinger 2001-2013
</metadata>
<g transform="translate(0.000000,640.000000) scale(0.100000,-0.100000)"
fill="#000000" stroke="none">
<path d="M2915 6099 c-358 -51 -461 -75 -705 -161 -129 -46 -152 -56 -326
-144 -387 -194 -732 -477 -997 -819 -13 -17 -81 -112 -97 -135 -8 -12 -23 -33
-33 -46 -10 -13 -15 -28 -12 -34 3 -5 1 -10 -4 -10 -6 0 -11 -7 -11 -15 0 -9
-7 -18 -15 -21 -8 -4 -13 -9 -10 -14 2 -4 -3 -16 -13 -26 -9 -11 -18 -26 -20
-34 -2 -8 -10 -21 -19 -27 -9 -7 -14 -13 -10 -13 3 0 -7 -24 -24 -52 -30 -50
-57 -106 -116 -238 -42 -94 -50 -113 -68 -165 -9 -27 -21 -59 -26 -70 -24 -56
-85 -290 -99 -378 -5 -28 -14 -86 -22 -127 -17 -98 -18 -696 -1 -790 7 -36 19
-108 27 -160 9 -52 20 -106 26 -120 5 -14 12 -43 16 -65 4 -22 10 -44 14 -50
4 -5 11 -29 15 -52 4 -24 10 -45 15 -48 4 -3 11 -22 15 -42 4 -21 11 -42 15
-48 5 -5 9 -14 10 -20 4 -18 12 -39 31 -90 143 -365 395 -735 697 -1026 249
-240 527 -426 857 -575 210 -94 488 -176 700 -205 39 -5 89 -14 113 -19 55
-13 669 -13 724 0 24 5 75 14 113 19 375 52 814 224 1155 455 317 213 611 508
818 819 40 60 72 110 72 112 0 3 19 37 43 77 37 64 114 217 138 273 35 84 57
147 55 156 0 3 4 12 11 20 6 8 14 31 18 52 4 20 11 39 15 42 5 3 11 24 15 48
4 23 11 47 15 52 4 6 10 28 14 50 4 22 11 51 16 65 6 14 17 68 26 120 8 52 20
124 27 160 17 94 16 692 -1 790 -8 41 -17 99 -22 127 -22 137 -97 393 -156
528 -62 145 -122 270 -156 328 -15 26 -24 47 -21 47 4 0 -1 6 -10 13 -9 6 -17
18 -19 26 -2 8 -11 23 -21 33 -10 10 -15 23 -12 27 2 5 -2 11 -10 15 -8 3 -15
13 -15 23 0 21 -61 111 -173 257 -178 233 -442 473 -722 655 -60 40 -182 107
-270 151 -185 91 -201 98 -315 138 -249 88 -358 112 -715 162 -85 11 -476 11
-560 -1z"/>
</g>
</svg>
